<svg xmlns="http://www.w3.org/2000/svg" width="924" height="922" viewBox="0 0 924 922">
<g>
<path d="M 0.00 0.00 L 924.00 0.00 L 924.00 922.00 L 0.00 922.00 ZM 319.45 874.99 C323.33,875.48 331.90,875.68 338.50,875.43 C372.18,874.17 400.39,861.88 424.14,838.14 C441.80,820.47 453.46,799.64 458.75,776.30 L 461.42 764.50 L 461.96 635.00 C462.43,521.32 462.67,506.42 463.87,513.00 C468.92,540.69 480.33,562.58 499.87,582.13 C515.55,597.81 532.72,608.21 553.10,614.39 C585.04,624.07 617.15,621.36 646.89,606.47 C660.76,599.52 671.07,591.84 682.53,579.90 C692.86,569.14 698.87,560.52 705.45,546.99 C725.89,505.06 721.05,453.73 693.14,416.32 C685.75,406.41 670.63,391.86 661.33,385.70 C646.03,375.57 625.86,367.75 609.25,365.52 C606.36,365.13 604.00,364.50 604.00,364.13 C604.00,363.75 607.62,362.87 612.05,362.17 C627.78,359.70 646.17,352.26 661.50,342.16 C670.61,336.16 685.78,321.55 693.14,311.68 C700.27,302.13 709.10,284.75 712.45,273.71 C724.20,234.91 716.93,192.21 693.14,160.32 C685.75,150.41 670.63,135.86 661.33,129.70 C644.31,118.43 624.76,111.31 604.70,109.07 C591.24,107.57 324.79,107.60 316.50,109.10 C297.64,112.52 292.33,114.18 278.27,121.09 C263.82,128.19 253.52,135.66 242.36,147.13 C231.43,158.38 226.17,165.87 219.06,180.34 C209.87,199.03 206.01,215.49 206.01,236.00 C206.01,256.53 209.87,272.97 219.09,291.73 C226.19,306.18 233.66,316.48 245.13,327.64 C256.38,338.57 263.87,343.83 278.34,350.94 C292.84,358.07 299.12,359.97 319.00,363.25 L 326.50 364.49 L 319.00 365.20 C303.61,366.64 293.57,369.57 278.34,377.06 C263.87,384.17 256.38,389.43 245.13,400.36 C233.66,411.52 226.19,421.82 219.09,436.27 C209.87,455.03 206.01,471.47 206.01,492.00 C206.01,512.53 209.87,528.97 219.09,547.73 C226.19,562.18 233.66,572.48 245.13,583.64 C256.38,594.57 263.87,599.83 278.34,606.94 C292.44,613.87 297.97,615.60 316.97,618.97 C324.44,620.29 325.80,621.00 320.92,621.01 C319.04,621.01 312.19,622.12 305.70,623.47 C282.85,628.23 261.78,639.94 243.86,657.86 C225.86,675.86 214.32,696.69 209.29,720.21 C205.55,737.74 205.55,758.26 209.29,775.79 C214.32,799.31 225.86,820.14 243.86,838.14 C265.02,859.29 289.40,871.18 319.45,874.99 ZM 466.52 459.79 C465.23,465.13 463.74,471.52 463.21,474.00 C462.54,477.12 462.20,460.92 462.12,421.25 L 462.00 364.00 L 519.75 364.09 L 577.50 364.18 L 566.43 366.45 C553.08,369.19 547.10,371.10 536.26,376.08 C502.28,391.69 475.03,424.39 466.52,459.79 Z" fill="rgb(0,0,0)"/>
<path d="M 319.45 874.99 C289.40,871.18 265.02,859.29 243.86,838.14 C225.86,820.14 214.32,799.31 209.29,775.79 C205.55,758.26 205.55,737.74 209.29,720.21 C214.32,696.69 225.86,675.86 243.86,657.86 C261.78,639.94 282.85,628.23 305.70,623.47 C312.19,622.12 319.04,621.01 320.92,621.01 C325.67,621.00 324.50,620.33 317.55,619.07 C323.90,619.46 355.33,619.81 391.25,619.87 L 462.00 620.00 L 462.12 562.75 C462.20,523.08 462.54,506.88 463.21,510.00 C463.36,510.68 463.50,511.36 463.65,512.02 C462.64,508.73 462.40,528.59 461.96,635.00 L 461.42 764.50 L 458.75 776.30 C453.46,799.64 441.80,820.47 424.14,838.14 C400.39,861.88 372.18,874.17 338.50,875.43 C331.90,875.68 323.33,875.48 319.45,874.99 ZM 463.88 513.05 C467.75,530.38 471.45,541.42 477.40,552.43 C470.96,540.57 466.54,527.61 463.88,513.05 ZM 709.12 282.73 C713.94,270.38 716.90,257.20 717.75,243.92 C717.16,253.94 715.41,263.95 712.45,273.71 C711.63,276.40 710.49,279.48 709.12,282.73 ZM 248.63 586.97 C257.50,595.09 266.43,601.07 278.02,606.79 C265.30,600.51 257.99,595.65 248.63,586.97 ZM 248.64 330.97 C257.50,339.09 266.43,345.07 278.01,350.78 C265.30,344.51 257.99,339.65 248.64,330.97 ZM 248.64 397.03 C257.99,388.35 265.30,383.49 278.01,377.22 C266.43,382.93 257.50,388.91 248.64,397.03 ZM 239.03 150.64 C230.91,159.50 224.93,168.43 219.22,180.01 C225.49,167.30 230.35,159.98 239.03,150.64 ZM 587.62 620.04 C607.74,620.46 627.92,615.96 646.89,606.47 C627.88,615.98 607.90,620.53 587.62,620.04 ZM 524.83 601.89 C533.16,606.77 541.77,610.67 550.57,613.59 C541.39,610.61 532.86,606.75 524.83,601.89 ZM 715.69 212.00 C712.07,193.25 704.32,175.31 693.14,160.32 C704.54,175.60 712.15,193.37 715.69,212.00 ZM 309.81 617.65 C303.34,616.39 298.63,615.25 294.16,613.75 C298.40,615.15 303.04,616.26 309.81,617.65 ZM 494.70 576.69 C497.11,579.33 499.65,581.95 502.24,584.45 C501.45,583.69 500.66,582.91 499.87,582.13 C498.08,580.34 496.36,578.53 494.70,576.69 ZM 243.74 401.74 C243.28,402.20 242.82,402.66 242.36,403.13 C241.19,404.34 240.08,405.50 239.03,406.64 C240.52,405.01 242.09,403.38 243.74,401.74 ZM 239.03 321.36 C240.08,322.50 241.19,323.66 242.36,324.87 C242.82,325.34 243.28,325.80 243.74,326.26 C242.09,324.62 240.52,322.99 239.03,321.36 ZM 248.64 141.03 C247.50,142.08 246.34,143.19 245.13,144.36 C244.66,144.82 244.20,145.28 243.74,145.74 C245.38,144.09 247.01,142.52 248.64,141.03 ZM 239.03 577.36 C240.08,578.50 241.19,579.66 242.36,580.87 C242.82,581.34 243.28,581.80 243.74,582.26 C242.09,580.62 240.52,578.99 239.03,577.36 Z" fill="rgb(10,205,130)"/>
<path d="M 316.50 618.97 C296.32,615.05 292.19,613.75 278.27,606.91 C263.82,599.81 253.52,592.34 242.36,580.87 C231.43,569.62 226.17,562.13 219.06,547.66 C209.87,528.97 206.01,512.51 206.01,492.00 C206.01,471.49 209.87,455.03 219.06,436.34 C226.17,421.87 231.43,414.38 242.36,403.13 C253.52,391.66 263.82,384.19 278.27,377.09 C293.57,369.57 303.59,366.64 319.00,365.20 L 326.50 364.49 L 319.00 363.25 C299.11,359.97 292.84,358.07 278.27,350.91 C263.82,343.81 253.52,336.34 242.36,324.87 C231.43,313.62 226.17,306.13 219.06,291.66 C209.87,272.97 206.01,256.51 206.01,236.00 C206.01,215.47 209.87,199.03 219.09,180.27 C226.19,165.82 233.66,155.52 245.13,144.36 C256.38,133.43 263.87,128.17 278.34,121.06 C292.33,114.18 297.65,112.51 316.50,109.10 C324.79,107.60 591.24,107.57 604.70,109.07 C624.76,111.31 644.31,118.43 661.33,129.70 C670.63,135.86 685.75,150.41 693.14,160.32 C709.04,181.63 718.00,208.91 718.00,236.00 C718.00,263.09 709.04,290.37 693.14,311.68 C685.78,321.55 670.61,336.16 661.50,342.16 C646.17,352.26 627.78,359.70 612.05,362.17 C607.62,362.87 604.00,363.75 604.00,364.13 C604.00,364.50 606.36,365.13 609.25,365.52 C625.86,367.75 646.03,375.57 661.33,385.70 C670.63,391.86 685.75,406.41 693.14,416.32 C721.05,453.73 725.89,505.06 705.45,546.99 C698.87,560.52 692.86,569.14 682.53,579.90 C671.07,591.84 660.76,599.52 646.89,606.47 C605.71,627.08 558.80,624.13 519.26,598.45 C507.36,590.72 490.99,574.23 483.15,562.09 C473.15,546.59 468.45,534.31 463.21,510.00 C462.54,506.88 462.20,523.08 462.12,562.75 L 462.00 620.00 L 391.25 619.87 C352.34,619.81 318.70,619.40 316.50,618.97 ZM 466.52 459.79 C475.03,424.39 502.28,391.69 536.26,376.08 C547.10,371.10 553.08,369.19 566.43,366.45 L 577.50 364.18 L 519.75 364.09 L 462.00 364.00 L 462.12 421.25 C462.20,460.92 462.54,477.12 463.21,474.00 C463.74,471.52 465.23,465.13 466.52,459.79 Z" fill="rgb(26,188,254)"/>
<path d="M 316.50 618.97 C296.32,615.05 292.19,613.75 278.27,606.91 C263.82,599.81 253.52,592.34 242.36,580.87 C231.43,569.62 226.17,562.13 219.06,547.66 C209.87,528.97 206.01,512.51 206.01,492.00 C206.01,471.49 209.87,455.03 219.06,436.34 C226.17,421.87 231.43,414.38 242.36,403.13 C253.52,391.66 263.82,384.19 278.27,377.09 C293.57,369.57 303.59,366.64 319.00,365.20 L 326.50 364.49 L 319.00 363.25 C299.11,359.97 292.84,358.07 278.27,350.91 C263.82,343.81 253.52,336.34 242.36,324.87 C231.43,313.62 226.17,306.13 219.06,291.66 C209.87,272.97 206.01,256.51 206.01,236.00 C206.01,215.47 209.87,199.03 219.09,180.27 C226.19,165.82 233.66,155.52 245.13,144.36 C256.38,133.43 263.87,128.17 278.34,121.06 C292.33,114.18 297.65,112.51 316.50,109.10 C324.79,107.60 591.24,107.57 604.70,109.07 C624.76,111.31 644.31,118.43 661.33,129.70 C670.63,135.86 685.75,150.41 693.14,160.32 C721.05,197.73 725.89,249.06 705.45,290.99 C698.87,304.52 692.86,313.14 682.53,323.90 C662.42,344.85 638.67,357.58 610.50,362.51 C602.86,363.84 590.93,364.07 531.69,364.02 L 461.88 363.96 L 462.01 434.73 C462.09,473.65 462.12,531.26 462.08,562.75 L 462.00 620.00 L 391.25 619.87 C352.34,619.81 318.70,619.40 316.50,618.97 Z" fill="rgb(161,88,254)"/>
<path d="M 446.00 364.00 C373.67,363.73 313.94,363.14 313.25,362.69 C312.56,362.24 309.86,361.50 307.25,361.04 C292.48,358.43 271.57,349.05 258.27,339.07 C249.07,332.16 236.05,319.02 229.63,310.16 C223.95,302.33 213.65,281.57 211.43,273.50 C207.53,259.25 206.01,248.77 206.01,236.00 C206.01,215.49 209.87,199.03 219.06,180.34 C226.17,165.87 231.43,158.38 242.36,147.13 C253.52,135.66 263.82,128.19 278.27,121.09 C292.33,114.18 297.64,112.52 316.50,109.10 C324.79,107.60 591.24,107.57 604.70,109.07 C624.76,111.31 644.31,118.43 661.33,129.70 C670.63,135.86 685.75,150.41 693.14,160.32 C716.93,192.21 724.20,234.91 712.45,273.71 C709.10,284.75 700.27,302.13 693.14,311.68 C685.78,321.55 670.61,336.16 661.50,342.16 C639.43,356.70 617.07,363.49 589.00,364.21 C582.67,364.37 518.33,364.27 446.00,364.00 Z" fill="rgb(241,77,29)"/>
<path d="M 519.75 364.24 L 462.00 363.98 L 462.00 235.99 L 462.00 108.00 L 528.54 108.00 C569.25,108.00 598.81,108.42 604.70,109.07 C624.76,111.31 644.31,118.43 661.33,129.70 C670.63,135.86 685.75,150.41 693.14,160.32 C716.93,192.21 724.20,234.91 712.45,273.71 C709.10,284.75 700.27,302.13 693.14,311.68 C685.78,321.55 670.61,336.16 661.50,342.16 C639.43,356.70 617.07,363.49 589.00,364.21 C582.67,364.37 551.51,364.38 519.75,364.24 Z" fill="rgb(255,113,97)"/>
</g>
</svg>