<svg xmlns="http://www.w3.org/2000/svg" width="250" height="250" viewBox="0 0 250 250">
<g>
<path d="M 32.10 248.42 C16.63,244.26 4.37,231.51 1.12,216.20 C-0.66,207.78 -0.42,39.15 1.39,32.35 C5.51,16.90 18.52,4.37 33.80,1.12 C41.17,-0.44 208.73,-0.45 216.20,1.11 C231.88,4.39 245.53,18.05 248.88,33.80 C250.44,41.17 250.45,208.73 248.89,216.20 C245.61,231.88 231.95,245.53 216.20,248.88 C212.50,249.66 184.82,249.98 124.20,249.93 C51.74,249.88 36.61,249.63 32.10,248.42 ZM 42.05 181.27 C42.02,181.70 49.51,181.92 58.69,181.77 L 75.38 181.50 L 77.94 173.50 L 80.50 165.50 L 102.18 165.23 L 123.86 164.96 L 126.64 173.48 L 129.41 182.00 L 163.93 182.00 L 160.94 173.75 C159.30,169.21 149.92,143.23 140.09,116.00 L 122.22 66.50 L 84.56 66.50 L 63.33 123.50 C51.65,154.85 42.07,180.85 42.05,181.27 ZM 168.00 91.00 L 168.00 182.00 L 199.00 182.00 L 199.00 91.00 L 168.00 91.00 ZM 178.00 87.87 C182.16,89.09 189.37,88.38 193.28,86.35 C202.68,81.50 201.90,66.73 191.98,61.75 C184.85,58.17 173.28,60.59 169.42,66.47 C164.26,74.36 168.56,85.09 178.00,87.87 ZM 114.01 135.25 C114.00,135.66 108.60,136.00 102.00,136.00 C95.40,136.00 90.01,135.89 90.02,135.75 C90.08,134.78 101.76,99.91 102.16,99.51 C102.61,99.06 114.02,133.48 114.01,135.25 Z" fill="rgba(50,0,0,1)"/>
<path d="M 42.05 181.27 C42.07,180.85 51.65,154.85 63.33,123.50 L 84.56 66.50 L 103.39 66.50 L 122.22 66.50 L 140.09 116.00 C149.92,143.23 159.30,169.21 160.94,173.75 L 163.93 182.00 L 146.67 182.00 L 129.41 182.00 L 126.64 173.48 L 123.86 164.96 L 102.18 165.23 L 80.50 165.50 L 77.94 173.50 L 75.38 181.50 L 58.69 181.77 C49.51,181.92 42.02,181.70 42.05,181.27 ZM 114.01 135.25 C114.02,133.48 102.61,99.06 102.16,99.51 C101.76,99.91 90.08,134.78 90.02,135.75 C90.01,135.89 95.40,136.00 102.00,136.00 C108.60,136.00 114.00,135.66 114.01,135.25 ZM 168.00 136.50 L 168.00 91.00 L 183.50 91.00 L 199.00 91.00 L 199.00 136.50 L 199.00 182.00 L 183.50 182.00 L 168.00 182.00 L 168.00 136.50 ZM 178.00 87.87 C168.56,85.09 164.26,74.36 169.42,66.47 C173.28,60.59 184.85,58.17 191.98,61.75 C201.90,66.73 202.68,81.50 193.28,86.35 C189.37,88.38 182.16,89.09 178.00,87.87 Z" fill="rgba(254,153,0,1)"/>
</g>
</svg>