<svg xmlns="http://www.w3.org/2000/svg" width="1037" height="1011" viewBox="0 0 1037 1011">
<g>
<path d="M 162.50 1009.83 C116.50,1004.64 73.34,981.36 43.20,945.50 C19.50,917.29 5.04,883.42 1.06,846.79 C-0.42,833.23 -0.42,177.77 1.06,164.21 C6.22,116.67 29.03,73.85 65.50,43.20 C93.71,19.50 127.58,5.04 164.21,1.06 C170.83,0.34 283.79,0.00 519.41,0.00 C856.10,0.00 874.76,-0.30 892.25,4.06 C894.45,4.61 896.63,5.23 899.42,5.94 C931.02,13.92 959.01,30.02 983.00,54.00 C1010.64,81.65 1026.19,111.44 1034.67,153.00 C1036.29,160.95 1036.43,183.43 1036.76,498.00 C1037.01,737.15 1036.79,837.68 1036.01,845.50 C1027.50,930.85 961.85,998.29 876.34,1009.50 C866.34,1010.81 821.14,1010.98 517.70,1010.87 C318.40,1010.79 167.09,1010.35 162.50,1009.83 ZM 608.00 720.93 C614.32,721.36 620.62,721.76 622.00,721.83 C628.42,722.13 662.07,719.93 673.13,718.49 C697.98,715.25 722.35,709.63 744.00,702.13 C758.36,697.16 764.35,695.26 766.52,691.27 C768.17,688.24 767.62,684.01 766.87,676.33 C765.92,666.66 765.47,609.24 765.05,443.00 L 764.50 222.50 L 669.50 222.50 L 669.24 292.50 L 668.99 362.50 L 642.74 362.51 C614.58,362.52 605.50,363.47 584.04,368.67 C530.87,381.56 487.68,415.26 464.00,462.36 C456.51,477.24 451.42,491.59 447.97,507.53 C445.24,520.13 444.15,554.11 445.92,571.23 C451.46,624.69 475.01,665.55 515.50,691.95 C539.74,707.76 574.52,718.65 608.00,720.93 ZM 281.87 714.35 C283.11,715.84 287.63,716.00 328.57,716.00 L 373.89 716.00 L 375.44 713.78 C376.84,711.78 377.00,688.67 377.00,487.50 C377.00,286.33 376.84,263.22 375.44,261.22 L 373.89 259.00 L 283.05 259.00 L 281.52 261.33 C280.15,263.42 280.01,288.08 280.24,488.18 C280.46,676.73 280.72,712.96 281.87,714.35 ZM 665.50 636.18 C660.94,637.43 624.30,638.04 617.58,636.97 C600.94,634.33 584.87,627.69 574.37,619.11 C553.36,601.95 541.62,569.89 543.38,534.50 C544.81,505.61 552.77,486.84 570.77,469.85 C579.67,461.46 584.71,458.02 596.23,452.46 C608.29,446.65 622.48,443.08 636.50,442.34 C646.41,441.81 663.41,443.07 667.46,444.62 C668.85,445.16 668.98,455.27 668.76,540.29 L 668.50 635.36 Z" fill="rgba(70,1,29,1)"/>
<path d="M 608.00 720.93 C574.52,718.65 539.74,707.76 515.50,691.95 C475.01,665.55 451.46,624.69 445.92,571.23 C444.15,554.11 445.24,520.13 447.97,507.53 C451.42,491.59 456.51,477.24 464.00,462.36 C487.68,415.26 530.87,381.56 584.04,368.67 C605.50,363.47 614.58,362.52 642.74,362.51 L 668.99 362.50 L 669.24 292.50 L 669.50 222.50 L 717.00 222.50 L 764.50 222.50 L 765.05 443.00 C765.47,609.24 765.92,666.66 766.87,676.33 C768.62,694.13 769.27,693.39 744.00,702.13 C722.35,709.63 697.98,715.25 673.13,718.49 C662.07,719.93 628.42,722.13 622.00,721.83 C620.62,721.76 614.32,721.36 608.00,720.93 ZM 665.50 636.18 L 668.50 635.36 L 668.76 540.29 C668.98,455.27 668.85,445.16 667.46,444.62 C663.41,443.07 646.41,441.81 636.50,442.34 C622.48,443.08 608.29,446.65 596.23,452.46 C584.71,458.02 579.67,461.46 570.77,469.85 C552.77,486.84 544.81,505.61 543.38,534.50 C541.62,569.89 553.36,601.95 574.37,619.11 C584.87,627.69 600.94,634.33 617.58,636.97 C624.30,638.04 660.94,637.43 665.50,636.18 ZM 281.87 714.35 C280.72,712.96 280.46,676.73 280.24,488.18 C280.01,288.08 280.15,263.42 281.52,261.33 L 283.05 259.00 L 328.47 259.00 L 373.89 259.00 L 375.44 261.22 C376.84,263.22 377.00,286.33 377.00,487.50 C377.00,688.67 376.84,711.78 375.44,713.78 L 373.89 716.00 L 328.57 716.00 C287.63,716.00 283.11,715.84 281.87,714.35 Z" fill="rgba(254,50,101,1)"/>
</g>
</svg>