<svg xmlns="http://www.w3.org/2000/svg" width="500" height="488" viewBox="0 0 500 488">
<g>
<path d="M 81.00 487.00 C42.87,483.68 11.04,456.18 2.27,419.00 C0.61,411.98 0.50,400.66 0.50,242.50 L 0.50 73.50 L 3.25 64.72 C12.91,33.94 33.94,12.85 64.50,3.31 L 73.50 0.50 L 249.00 0.50 C415.84,0.50 430.18,-0.03 441.93,5.23 C444.19,6.24 446.36,7.47 449.50,8.96 C472.62,19.91 488.61,38.75 496.70,64.55 L 499.50 73.50 L 499.50 242.50 C499.50,400.66 499.39,411.98 497.73,419.00 C490.18,451.02 465.80,475.85 433.07,484.84 L 423.50 487.46 L 256.50 487.60 C164.65,487.68 85.68,487.41 81.00,487.00 ZM 113.22 343.25 C113.87,344.84 115.87,345.00 134.77,345.00 C149.64,345.00 155.94,344.66 156.80,343.80 C157.69,342.91 158.00,333.76 158.00,308.80 L 158.00 275.00 L 174.75 274.99 C206.97,274.98 226.95,269.83 243.17,257.37 C259.51,244.80 268.25,227.36 269.64,204.50 C272.00,165.82 251.02,137.41 212.84,127.61 C200.06,124.33 188.41,123.74 150.51,124.45 C130.16,124.84 113.29,125.38 113.01,125.66 C112.21,126.46 112.42,341.29 113.22,343.25 ZM 326.29 347.90 C345.70,350.16 366.13,348.30 379.70,343.04 C393.76,337.58 405.11,326.86 410.16,314.24 C412.13,309.34 412.46,306.68 412.48,296.00 C412.50,284.05 412.36,283.21 409.39,277.00 C407.68,273.42 404.41,268.40 402.13,265.83 C395.60,258.50 381.22,250.07 364.02,243.51 C344.49,236.05 336.00,230.14 336.00,224.00 C336.00,219.81 340.17,215.45 345.43,214.12 C356.27,211.39 377.15,213.84 392.84,219.67 C397.97,221.58 402.81,222.90 403.59,222.61 C405.53,221.86 405.68,184.78 403.75,183.26 C396.13,177.29 357.49,173.87 338.34,177.48 C326.33,179.74 313.75,186.37 306.25,194.39 C296.18,205.16 292.45,215.62 293.19,231.06 C293.55,238.65 294.09,240.81 297.26,247.21 C303.95,260.74 316.92,270.71 340.00,280.04 C362.83,289.28 368.00,292.91 368.00,299.71 C368.00,304.79 363.88,308.47 356.44,310.02 C342.69,312.89 317.91,308.84 301.63,301.06 C297.17,298.93 293.18,297.39 292.76,297.65 C292.34,297.91 292.00,306.83 292.00,317.49 C292.00,333.37 292.27,337.13 293.50,338.36 C296.80,341.66 312.89,346.34 326.29,347.90 ZM 190.62 234.49 C185.73,235.32 176.40,236.00 169.87,236.00 L 158.00 236.00 L 158.00 165.00 L 173.36 165.00 C190.04,165.00 195.39,165.70 204.53,169.06 C212.45,171.97 220.00,179.52 222.57,187.09 C224.87,193.87 224.88,205.83 222.59,212.72 C218.89,223.86 207.51,231.61 190.62,234.49 Z" fill="rgba(0,28,52,1)"/>
<path d="M 326.29 347.90 C312.89,346.34 296.80,341.66 293.50,338.36 C292.27,337.13 292.00,333.37 292.00,317.49 C292.00,306.83 292.34,297.91 292.76,297.65 C293.18,297.39 297.17,298.93 301.63,301.06 C317.91,308.84 342.69,312.89 356.44,310.02 C363.88,308.47 368.00,304.79 368.00,299.71 C368.00,292.91 362.83,289.28 340.00,280.04 C316.92,270.71 303.95,260.74 297.26,247.21 C294.09,240.81 293.55,238.65 293.19,231.06 C292.45,215.62 296.18,205.16 306.25,194.39 C313.75,186.37 326.33,179.74 338.34,177.48 C357.49,173.87 396.13,177.29 403.75,183.26 C405.68,184.78 405.53,221.86 403.59,222.61 C402.81,222.90 397.97,221.58 392.84,219.67 C377.15,213.84 356.27,211.39 345.43,214.12 C340.17,215.45 336.00,219.81 336.00,224.00 C336.00,230.14 344.49,236.05 364.02,243.51 C381.22,250.07 395.60,258.50 402.13,265.83 C404.41,268.40 407.68,273.42 409.39,277.00 C412.36,283.21 412.50,284.05 412.48,296.00 C412.46,306.68 412.13,309.34 410.16,314.24 C405.11,326.86 393.76,337.58 379.70,343.04 C366.13,348.30 345.70,350.16 326.29,347.90 ZM 113.22 343.25 C112.42,341.29 112.21,126.46 113.01,125.66 C113.29,125.38 130.16,124.84 150.51,124.45 C188.41,123.74 200.06,124.33 212.84,127.61 C251.02,137.41 272.00,165.82 269.64,204.50 C268.25,227.36 259.51,244.80 243.17,257.37 C226.95,269.83 206.97,274.98 174.75,274.99 L 158.00 275.00 L 158.00 308.80 C158.00,333.76 157.69,342.91 156.80,343.80 C155.94,344.66 149.64,345.00 134.77,345.00 C115.87,345.00 113.87,344.84 113.22,343.25 ZM 190.62 234.49 C207.51,231.61 218.89,223.86 222.59,212.72 C224.88,205.83 224.87,193.87 222.57,187.09 C220.00,179.52 212.45,171.97 204.53,169.06 C195.39,165.70 190.04,165.00 173.36,165.00 L 158.00 165.00 L 158.00 200.50 L 158.00 236.00 L 169.87 236.00 C176.40,236.00 185.73,235.32 190.62,234.49 Z" fill="rgba(49,167,254,1)"/>
</g>
</svg>