<svg xmlns="http://www.w3.org/2000/svg" width="450" height="450" viewBox="0 0 450 450">
<g>
<path d="M 215.50 447.77 C209.87,445.76 39.51,346.86 36.21,343.69 C34.40,341.95 31.70,338.04 30.21,335.01 L 27.50 329.50 L 27.50 120.50 L 30.32 114.76 C31.87,111.60 35.02,107.40 37.32,105.43 C41.39,101.93 205.01,6.82 214.00,2.73 C219.54,0.20 230.74,-0.04 236.12,2.25 C244.29,5.72 410.80,102.55 414.34,105.88 C416.45,107.87 419.37,111.75 420.84,114.50 L 423.50 119.50 L 423.50 330.50 L 420.84 335.50 C419.38,338.25 416.68,341.94 414.84,343.70 C411.16,347.23 241.83,445.42 235.62,447.62 C231.10,449.23 219.82,449.31 215.50,447.77 ZM 214.50 364.88 C257.73,368.23 295.94,354.24 326.03,324.06 C346.39,303.65 358.34,281.63 364.64,252.95 C366.15,246.08 366.49,240.29 366.47,222.00 C366.45,202.33 366.17,198.32 364.23,190.08 C360.58,174.55 356.75,169.00 349.70,169.00 C343.89,169.00 336.55,177.56 332.05,189.58 C331.00,192.40 328.97,201.36 327.55,209.48 C319.25,256.97 305.74,287.38 282.34,311.25 C254.45,339.71 217.58,347.73 179.76,333.56 C151.42,322.95 127.32,297.94 118.09,269.55 C114.15,257.47 112.96,251.25 112.52,240.50 C112.06,229.35 113.29,221.12 117.14,209.50 C128.85,174.13 159.92,147.92 207.03,133.66 C217.30,130.55 225.11,128.81 252.00,123.64 C266.27,120.89 277.98,115.00 281.96,108.56 C284.40,104.61 284.49,102.84 282.46,98.56 C278.76,90.76 264.42,87.03 235.28,86.29 C211.91,85.69 201.23,87.00 184.34,92.53 C162.64,99.64 145.77,110.10 128.87,126.92 C107.38,148.31 94.69,172.49 89.33,202.28 C87.12,214.57 87.16,237.37 89.43,249.93 C94.72,279.31 107.48,303.71 128.42,324.50 C152.54,348.45 182.24,362.38 214.50,364.88 ZM 220.00 291.57 C227.81,293.23 241.94,292.72 250.50,290.49 C269.38,285.56 286.04,271.93 294.50,254.50 C299.63,243.94 303.70,230.45 307.63,211.08 C309.58,201.46 312.31,190.76 313.70,187.28 C316.31,180.77 323.60,171.58 327.03,170.49 C328.94,169.88 328.94,169.80 326.87,165.69 C322.96,157.94 316.25,149.46 307.27,140.95 C299.27,133.37 287.22,124.94 284.52,125.04 C283.96,125.06 282.60,126.50 281.50,128.24 C278.72,132.64 272.13,137.43 265.28,140.02 C262.10,141.23 251.85,143.76 242.50,145.66 C222.57,149.69 203.69,155.71 194.82,160.85 C187.07,165.34 174.64,177.61 170.18,185.19 C164.17,195.39 161.72,204.13 161.21,217.16 C160.68,230.75 162.32,239.95 167.07,249.98 C177.32,271.66 196.29,286.57 220.00,291.57 Z" fill="rgba(43,44,163,1)"/>
<path d="M 214.50 364.88 C182.24,362.38 152.54,348.45 128.42,324.50 C107.48,303.71 94.72,279.31 89.43,249.93 C87.16,237.37 87.12,214.57 89.33,202.28 C94.69,172.49 107.38,148.31 128.87,126.92 C145.77,110.10 162.64,99.64 184.34,92.53 C201.23,87.00 211.91,85.69 235.28,86.29 C264.42,87.03 278.76,90.76 282.46,98.56 C284.49,102.84 284.40,104.61 281.96,108.56 C277.98,115.00 266.27,120.89 252.00,123.64 C225.11,128.81 217.30,130.55 207.03,133.66 C159.92,147.92 128.85,174.13 117.14,209.50 C113.29,221.12 112.06,229.35 112.52,240.50 C112.96,251.25 114.15,257.47 118.09,269.55 C127.32,297.94 151.42,322.95 179.76,333.56 C217.58,347.73 254.45,339.71 282.34,311.25 C305.74,287.38 319.25,256.97 327.55,209.48 C328.97,201.36 331.00,192.40 332.05,189.58 C336.55,177.56 343.89,169.00 349.70,169.00 C356.75,169.00 360.58,174.55 364.23,190.08 C366.17,198.32 366.45,202.33 366.47,222.00 C366.49,240.29 366.15,246.08 364.64,252.95 C358.34,281.63 346.39,303.65 326.03,324.06 C295.94,354.24 257.73,368.23 214.50,364.88 ZM 220.00 291.57 C196.29,286.57 177.32,271.66 167.07,249.98 C162.32,239.95 160.68,230.75 161.21,217.16 C161.72,204.13 164.17,195.39 170.18,185.19 C174.64,177.61 187.07,165.34 194.82,160.85 C203.69,155.71 222.57,149.69 242.50,145.66 C251.85,143.76 262.10,141.23 265.28,140.02 C272.13,137.43 278.72,132.64 281.50,128.24 C282.60,126.50 283.96,125.06 284.52,125.04 C287.22,124.94 299.27,133.37 307.27,140.95 C316.25,149.46 322.96,157.94 326.87,165.69 C328.94,169.80 328.94,169.88 327.03,170.49 C323.60,171.58 316.31,180.77 313.70,187.28 C312.31,190.76 309.58,201.46 307.63,211.08 C303.70,230.45 299.63,243.94 294.50,254.50 C286.04,271.93 269.38,285.56 250.50,290.49 C241.94,292.72 227.81,293.23 220.00,291.57 Z" fill="rgba(91,135,243,1)"/>
</g>
</svg>